<?xml version="1.0" standalone="no"?>
<!DOCTYPE svg PUBLIC "-//W3C//DTD SVG 20010904//EN"
 "http://www.w3.org/TR/2001/REC-SVG-20010904/DTD/svg10.dtd">
<svg version="1.0" xmlns="http://www.w3.org/2000/svg"
 width="435.000000pt" height="435.000000pt" viewBox="0 0 435.000000 435.000000"
 preserveAspectRatio="xMidYMid meet">
<metadata>
Created by potrace 1.14, written by Peter Selinger 2001-2017
</metadata>
<g transform="translate(0.000000,435.000000) scale(0.100000,-0.100000)"
fill="#000000" stroke="none">
<path d="M2009 4316 c-2 -2 -33 -6 -69 -10 -36 -3 -74 -8 -85 -10 -11 -2 -40
-7 -65 -12 -25 -4 -47 -8 -50 -9 -3 -1 -32 -7 -65 -14 -172 -38 -458 -156
-615 -255 -78 -49 -215 -146 -251 -178 -14 -13 -50 -43 -78 -68 -43 -36 -177
-180 -234 -250 -110 -134 -241 -358 -308 -525 -37 -94 -97 -285 -105 -335 -3
-19 -7 -37 -9 -40 -2 -3 -6 -26 -10 -50 -3 -25 -8 -52 -10 -60 -22 -79 -27
-481 -7 -605 26 -158 25 -154 52 -259 202 -787 841 -1394 1645 -1561 159 -33
228 -39 430 -39 215 -1 313 10 525 59 33 8 103 29 133 40 20 8 38 15 40 14 4
-1 38 12 127 48 173 70 363 182 517 305 98 79 267 248 324 325 24 32 47 60 50
63 5 5 98 140 126 185 87 138 215 454 238 584 3 19 8 38 11 42 6 11 32 164 41
249 15 128 8 453 -11 546 -2 12 -7 39 -10 60 -36 229 -158 540 -296 760 -118
187 -300 393 -460 519 -41 32 -77 62 -80 65 -6 8 -143 98 -180 119 -138 78
-270 138 -435 197 -36 13 -138 41 -175 48 -14 2 -61 12 -105 20 -44 8 -98 18
-120 21 -44 6 -421 16 -426 11z"/>
</g>
</svg>
